<?xml version="1.0" encoding="utf-8"?>
<!-- Generator: Adobe Illustrator 23.0.0, SVG Export Plug-In . SVG Version: 6.00 Build 0)  -->
<svg version="1.1" xmlns="http://www.w3.org/2000/svg" xmlns:xlink="http://www.w3.org/1999/xlink" x="0px" y="0px"
	 viewBox="0 0 107 93" style="enable-background:new 0 0 107 93;" xml:space="preserve">
<style type="text/css">
	.st0{fill:#F2F2F2;}
	.st1{fill:#1A1A1A;}
	.st2{fill:url(#SVGID_5_);}
	.st3{fill:#FFFFFF;}
	.st4{fill:#F7931E;}
	.st5{fill:none;stroke:#F7931E;stroke-width:2;stroke-linecap:round;stroke-linejoin:round;stroke-miterlimit:10;}
	.st6{fill:#F7931E;stroke:#F7931E;stroke-width:2;stroke-linecap:round;stroke-linejoin:round;stroke-miterlimit:10;}
	.st7{fill-rule:evenodd;clip-rule:evenodd;fill:#F7931E;}
</style>
<g id="Layer_1">
	<path class="st7" d="M92.26,80.19c0.36-1.09,1.54-1.68,2.63-1.32c1.09,0.36,1.68,1.54,1.32,2.63c-1.44,4.34-5.2,8.41-10.07,8.41
		H41.89c-1.15,0-2.09-0.94-2.09-2.09c0-1.15,0.94-2.09,2.09-2.09h44.25C89.13,85.72,91.42,82.72,92.26,80.19L92.26,80.19z
		 M96.37,68.42c0.21-1.13,1.3-1.88,2.43-1.67c1.13,0.21,1.88,1.3,1.67,2.43c-0.74,3.96-3.53,7.01-7.73,7.01h-3.89
		c-1.15,0-2.09-0.94-2.09-2.09c0-1.16,0.94-2.09,2.09-2.09h3.89C94.89,72.01,96,70.37,96.37,68.42L96.37,68.42z M42.88,44.76
		c-0.76,0.87-2.08,0.95-2.95,0.19c-0.87-0.76-0.95-2.08-0.19-2.95c6.04-6.86,8.4-14.7,12.14-22.75V5.32c0-0.51,0.18-0.97,0.48-1.33
		c3.35-4.38,9.71-4.7,14.28-2.19c0.09,0.05,0.82,0.79,0.82,0.79c3.62,6.31,5.43,11.09,5.88,16.33c0.39,4.57-0.27,9.37-1.69,15.77
		h27.32c5.14,0,7.83,4.59,7.84,9.23c0,4.7-2.74,9.16-7.92,9.16h-3.89c-1.16,0-2.09-0.94-2.09-2.09c0-1.16,0.94-2.09,2.09-2.09h3.89
		c2.69,0,3.76-2.68,3.75-4.98c0-2.21-1.07-5.05-3.67-5.05l-29.94,0c-1.33,0-2.34-1.25-2.03-2.56c1.71-7.3,2.58-12.4,2.18-17.04
		c-0.38-4.42-1.94-8.58-5.04-14.07C61.59,4,58.14,4,56.06,6.09V19.7c0,0-0.17,0.81-0.2,0.88C51.8,29.25,49.46,37.3,42.88,44.76
		L42.88,44.76z M98.94,56.86c0.17-1.14,1.24-1.93,2.38-1.76c1.14,0.17,1.93,1.24,1.76,2.38c-0.63,4.1-3.44,7.38-7.8,7.38h-3.89
		c-1.15,0-2.09-0.94-2.09-2.09c0-1.15,0.94-2.09,2.09-2.09h3.89C97.52,60.68,98.63,58.89,98.94,56.86L98.94,56.86z M32.59,45.98
		H4.68l2.56,42.95h25.35V45.98L32.59,45.98z M2.47,41.8h32.22c1.16,0,2.09,0.94,2.09,2.09v47.14c0,1.15-0.94,2.09-2.09,2.09
		l-29.41,0c-1.1,0-2.02-0.86-2.08-1.96l-2.8-46.99C0.24,42.9,1.2,41.8,2.47,41.8L2.47,41.8z M9.31,53.21
		c-1.15,0-2.09-0.94-2.09-2.09c0-1.15,0.94-2.09,2.09-2.09h18.17c1.16,0,2.09,0.94,2.09,2.09v30.79c0,1.16-0.94,2.09-2.09,2.09
		c-1.18,0-2.09-0.95-2.09-2.12c-0.01-1.08-0.88-1.94-1.97-1.94c-1.09,0-1.97,0.88-1.97,1.97c0,1.09,0.88,1.97,1.97,1.97
		c1.15,0,2.09,0.94,2.09,2.09c0,1.15-0.94,2.09-2.09,2.09c-3.39,0-6.15-2.76-6.15-6.15c0-3.4,2.76-6.15,6.15-6.15
		c0.69,0,1.35,0.11,1.97,0.32V53.21H9.31z"/>
</g>
<g id="Layer_2">
</g>
</svg>
