<?xml version="1.0" encoding="utf-8"?>
<!-- Generator: Adobe Illustrator 23.0.0, SVG Export Plug-In . SVG Version: 6.00 Build 0)  -->
<svg version="1.1" xmlns="http://www.w3.org/2000/svg" xmlns:xlink="http://www.w3.org/1999/xlink" x="0px" y="0px"
	 viewBox="0 0 109 109" style="enable-background:new 0 0 109 109;" xml:space="preserve">
<style type="text/css">
	.st0{fill:#F2F2F2;}
	.st1{fill:#1A1A1A;}
	.st2{fill:url(#SVGID_5_);}
	.st3{fill:#FFFFFF;}
	.st4{fill:#F7931E;}
	.st5{fill:none;stroke:#F7931E;stroke-width:2;stroke-linecap:round;stroke-linejoin:round;stroke-miterlimit:10;}
	.st6{fill:#F7931E;stroke:#F7931E;stroke-width:2;stroke-linecap:round;stroke-linejoin:round;stroke-miterlimit:10;}
	.st7{fill-rule:evenodd;clip-rule:evenodd;fill:#F7931E;}
</style>
<g id="Layer_1">
	<path class="st7" d="M54.59,78.08c-1.16,0-2.09-0.94-2.09-2.09c0-1.15,0.94-2.09,2.09-2.09c10.8,0,19.56-8.76,19.56-19.56
		c0-10.8-8.76-19.56-19.56-19.56c-10.8,0-19.56,8.76-19.56,19.56c0,1.15-0.94,2.09-2.09,2.09c-1.15,0-2.09-0.94-2.09-2.09
		c0-13.11,10.63-23.75,23.74-23.75c13.11,0,23.74,10.63,23.74,23.75C78.34,67.44,67.7,78.08,54.59,78.08L54.59,78.08z M29.89,34.77
		c-4.26,5.37-6.81,12.17-6.81,19.56c0,17.4,14.11,31.51,31.51,31.51c17.4,0,31.51-14.11,31.51-31.51c0-7.39-2.55-14.19-6.81-19.56
		h27.46c1.16,0,2.09-0.94,2.09-2.09V9.17c0-5-4.09-9.09-9.09-9.09H9.43c-5,0-9.09,4.09-9.09,9.09v23.5c0,1.15,0.94,2.09,2.09,2.09
		H29.89L29.89,34.77z M75.3,30.59h29.36V9.17c0-2.7-2.21-4.91-4.91-4.91H9.43c-2.7,0-4.91,2.21-4.91,4.91v21.41h29.36
		c5.54-4.83,12.78-7.76,20.71-7.76C62.52,22.82,69.76,25.75,75.3,30.59L75.3,30.59z M54.59,40.12c-7.85,0-14.21,6.36-14.21,14.21
		c0,7.85,6.36,14.21,14.21,14.21c7.85,0,14.21-6.36,14.21-14.21c0-1.16-0.94-2.09-2.09-2.09c-1.15,0-2.09,0.94-2.09,2.09
		c0,5.54-4.49,10.03-10.03,10.03c-5.54,0-10.03-4.49-10.03-10.03c0-5.54,4.49-10.03,10.03-10.03c1.15,0,2.09-0.94,2.09-2.09
		C56.68,41.05,55.75,40.12,54.59,40.12L54.59,40.12z M54.59,81.65c15.09,0,27.32-12.23,27.32-27.32c0-15.09-12.23-27.32-27.32-27.32
		c-15.07,0-27.32,12.21-27.32,27.32C27.27,69.42,39.5,81.65,54.59,81.65L54.59,81.65z M96.07,11.38c0.57,0,1.02,0.45,1.02,1.02
		v10.05c0,0.57-0.45,1.02-1.02,1.02H86.02c-0.57,0-1.02-0.45-1.02-1.02V12.4c0-0.57,0.45-1.02,1.02-1.02H96.07L96.07,11.38z
		 M86.02,7.19h10.05c2.86,0,5.21,2.35,5.21,5.21v10.05c0,2.84-2.36,5.21-5.21,5.21H86.02c-2.86,0-5.21-2.35-5.21-5.21V12.4
		C80.82,9.54,83.17,7.19,86.02,7.19L86.02,7.19z M104.66,40.09v59.4c0,2.69-2.22,4.91-4.91,4.91H9.43c-2.69,0-4.91-2.22-4.91-4.91
		v-59.4c0-1.15-0.94-2.09-2.09-2.09s-2.09,0.94-2.09,2.09v59.4c0,5,4.09,9.09,9.09,9.09h90.31c4.99,0,9.09-4.1,9.09-9.09v-59.4
		c0-1.15-0.94-2.09-2.09-2.09C105.59,38,104.66,38.93,104.66,40.09z"/>
</g>
<g id="Layer_2">
</g>
</svg>
