<?xml version="1.0" encoding="utf-8"?><svg id="Layer_1" data-name="Layer 1" xmlns="http://www.w3.org/2000/svg" viewBox="0 0 108.5 108.5"><defs><style>.cls-1{fill:#f39323;}</style></defs><title>@</title><path class="cls-1" d="M77.73,101.31c-8.47,4.47-17.08,6.16-27.4,6.16-25.23,0-46.62-18.47-46.62-48,0-31.7,22-59.09,56.17-59.09,26.77,0,44.78,18.78,44.78,44.47,0,23.09-12.93,36.63-27.39,36.63-6.16,0-11.85-4.15-11.39-13.54h-.62C59.88,77,52.8,81.46,43.56,81.46c-8.92,0-16.62-7.23-16.62-19.39A36.34,36.34,0,0,1,63.42,25.6a40.51,40.51,0,0,1,16.46,3.23L74.65,56.68c-2.31,11.7-.46,17.09,4.62,17.24,7.84.15,16.62-10.31,16.62-28.16,0-22.32-13.39-38.32-37.25-38.32-25.08,0-46.16,19.85-46.16,51.09,0,25.7,16.77,41.55,39.55,41.55,8.77,0,16.93-1.85,23.23-5.38ZM69.26,34.83a26.68,26.68,0,0,0-7.69-1.07C48,33.76,37.1,46.53,37.1,61.45c0,6.78,3.39,11.7,10.16,11.7,8.92,0,17.08-11.39,18.77-20.93Z"/></svg>
