<?xml version="1.0" encoding="utf-8"?>
<!-- Generator: Adobe Illustrator 23.0.0, SVG Export Plug-In . SVG Version: 6.00 Build 0)  -->
<svg version="1.1" xmlns="http://www.w3.org/2000/svg" xmlns:xlink="http://www.w3.org/1999/xlink" x="0px" y="0px"
	 viewBox="0 0 62.17 24.66" style="enable-background:new 0 0 62.17 24.66;" xml:space="preserve">
<g id="Layer_1" viewBox="0 0 52.17 24.66">
	<g>
		<g>
			<path class="st4" d="M29.29,24.66c-6.1,0-8.87-6.16-9.42-12.01c-0.37-3.89-0.84-7.05-3.22-9.3C14.8,1.6,12.24,1.55,9.97,3.23
				C8.25,4.51,7.44,6.69,6.59,9L6.44,9.4c-0.84,2.26-2.21,4.88-5.4,5c-0.6,0.04-1.02-0.41-1.04-0.96c-0.02-0.55,0.41-1.02,0.96-1.04
				c1.61-0.07,2.66-1.14,3.61-3.7l0.15-0.39c0.92-2.48,1.86-5.05,4.07-6.69c3.05-2.25,6.67-2.15,9.24,0.27
				c2.89,2.73,3.45,6.4,3.84,10.57c0.48,5.04,2.7,10.37,7.69,10.19c1.94-0.07,3.58-0.98,4.99-2.79c0.94-1.21,1.64-2.67,2.38-4.21
				c0.89-1.85,1.81-3.77,3.21-5.27c1.97-2.1,4.78-3.29,7.93-3.35h12.05c0.55,0,1,0.45,1,1s-0.45,1-1,1H48.08
				c-2.58,0.05-4.9,1.02-6.49,2.72c-1.2,1.27-2.01,2.97-2.87,4.76c-0.75,1.57-1.53,3.19-2.6,4.57c-1.77,2.28-3.96,3.47-6.49,3.56
				C29.51,24.65,29.4,24.66,29.29,24.66z"/>
			<path class="st4" d="M50.68,16.94c-0.31,0-0.62-0.15-0.82-0.42c-0.32-0.45-0.21-1.08,0.24-1.39l9.37-6.65l-9.04-6.63
				c-0.45-0.33-0.54-0.95-0.21-1.4c0.33-0.44,0.95-0.54,1.4-0.21l10.15,7.45c0.26,0.19,0.41,0.49,0.41,0.81s-0.16,0.62-0.42,0.81
				l-10.5,7.45C51.08,16.88,50.88,16.94,50.68,16.94z"/>
		</g>
	</g>
</g>
<g id="Layer_2">
</g>
</svg>
