<svg xmlns="http://www.w3.org/2000/svg" id="Layer_1" data-name="Layer 1" viewBox="75 160 350 150"><defs><style>.cls-1{fill:#fff;}.cls-2{fill:#f7931e;}</style></defs><title>Logo-Horizontal-White-01-02</title><path class="cls-1" d="M207.49,230.11h2l3.79,5.61h8l-4.68-6.89a7.67,7.67,0,0,0,3.12-2.83,7.91,7.91,0,0,0,1.08-4.18,7.7,7.7,0,0,0-4.78-7.39,13.14,13.14,0,0,0-5.38-1H200v22.31h7.52Zm0-10.9h2.74a3.37,3.37,0,0,1,2.29.68,2.8,2.8,0,0,1,0,3.86,3.32,3.32,0,0,1-2.29.69h-2.74Z"/><polygon class="cls-1" points="267.75 230.05 256.6 230.05 256.6 227.11 266.03 227.11 266.03 221.69 256.6 221.69 256.6 219.08 267.34 219.08 267.34 213.41 249.21 213.41 249.21 235.72 267.75 235.72 267.75 230.05"/><path class="cls-1" d="M308.26,219a6.37,6.37,0,0,1,5,2.45l4.82-4.24a11.07,11.07,0,0,0-4.32-3.2,15,15,0,0,0-5.88-1.1,14,14,0,0,0-6.52,1.48,11,11,0,0,0-4.49,4.14,12.13,12.13,0,0,0,0,12.08,11,11,0,0,0,4.44,4.15,13.73,13.73,0,0,0,6.41,1.48,19.26,19.26,0,0,0,5.13-.73,15.12,15.12,0,0,0,4.59-2.11V224H310.9v5.64a7.08,7.08,0,0,1-2.74.54,5.09,5.09,0,0,1-3.87-1.53,6.39,6.39,0,0,1,0-8.13A5.28,5.28,0,0,1,308.26,219Z"/><path class="cls-1" d="M362.85,235.72h7.78l-9.75-22.31h-7.4l-9.75,22.31h7.65l1.5-3.89h8.47Zm-7.9-9.31,2.17-5.61,2.16,5.61Z"/><polygon class="cls-1" points="414.93 229.89 404.86 229.89 404.86 213.41 397.33 213.41 397.33 235.72 414.93 235.72 414.93 229.89"/><path class="cls-2" d="M220.73,245.59q-3.39-2.86-9.37-2.86H199.67V274H203V264.1h8.38q6,0,9.37-2.83a10.76,10.76,0,0,0,0-15.68Zm-2.36,13.58c-1.64,1.36-4,2-7.1,2H203V245.59h8.29c3.1,0,5.46.67,7.1,2a7.13,7.13,0,0,1,2.45,5.82A7,7,0,0,1,218.37,259.17Z"/><polygon class="cls-2" points="251.28 242.73 251.16 242.73 240.46 260.26 229.75 242.73 226.22 242.73 238.71 263.16 238.71 273.96 241.97 273.96 241.97 263.16 252.72 245.59 265.44 245.59 265.44 273.96 268.74 273.96 268.74 245.59 279.72 245.59 279.72 242.73 254.46 242.73 251.28 242.73"/><polygon class="cls-2" points="307.83 256.65 288.28 256.65 288.28 242.73 284.98 242.73 284.98 273.96 288.28 273.96 288.28 259.55 307.83 259.55 307.83 273.96 311.08 273.96 311.08 242.73 307.83 242.73 307.83 256.65"/><path class="cls-2" d="M343.28,244.51a18.08,18.08,0,0,0-16.78,0,15.14,15.14,0,0,0-5.89,5.69,16.61,16.61,0,0,0,0,16.24,15.11,15.11,0,0,0,5.89,5.68,18.08,18.08,0,0,0,16.78,0,15.26,15.26,0,0,0,5.86-5.69,16.57,16.57,0,0,0,0-16.29A15.26,15.26,0,0,0,343.28,244.51Zm3,20.46a12.09,12.09,0,0,1-4.69,4.64,13.39,13.39,0,0,1-6.69,1.67,13.56,13.56,0,0,1-6.72-1.67,12.17,12.17,0,0,1-4.72-4.64,13.62,13.62,0,0,1,0-13.25,12.24,12.24,0,0,1,4.72-4.64,13.56,13.56,0,0,1,6.72-1.67,13.39,13.39,0,0,1,6.69,1.67,12.16,12.16,0,0,1,4.69,4.64,13.83,13.83,0,0,1,0,13.25Z"/><polygon class="cls-2" points="381.54 268.07 361.41 242.73 358.69 242.73 358.69 273.96 361.99 273.96 361.99 248.62 382.07 273.96 384.79 273.96 384.79 242.73 381.54 242.73 381.54 268.07"/><path class="cls-2" d="M413.75,261.18a9.07,9.07,0,0,0-3.59-2.5A46.18,46.18,0,0,0,404.6,257q-2.89-.72-4.62-1.32a7.44,7.44,0,0,1-2.85-1.74,4.06,4.06,0,0,1-1.14-3,4.88,4.88,0,0,1,2.08-4.08q2.07-1.59,6.17-1.59a15.76,15.76,0,0,1,4.38.65,15.48,15.48,0,0,1,4.19,1.94l1.12-2.63a15.13,15.13,0,0,0-4.44-2,19,19,0,0,0-5.25-.74,15.75,15.75,0,0,0-6.42,1.16,8.65,8.65,0,0,0-3.84,3.1,7.83,7.83,0,0,0-1.25,4.31,6.68,6.68,0,0,0,1.5,4.59,9.06,9.06,0,0,0,3.59,2.52,45.6,45.6,0,0,0,5.62,1.72,46,46,0,0,1,4.6,1.32,7.6,7.6,0,0,1,2.79,1.72,4,4,0,0,1,1.13,3,4.76,4.76,0,0,1-2.09,4q-2.1,1.55-6.29,1.54a16.49,16.49,0,0,1-5.81-1.05,12.4,12.4,0,0,1-4.5-2.74l-1.3,2.54a12.23,12.23,0,0,0,4.94,2.94,19.88,19.88,0,0,0,6.67,1.12,16.24,16.24,0,0,0,6.46-1.14A8.52,8.52,0,0,0,414,270a7.66,7.66,0,0,0,1.27-4.3A6.6,6.6,0,0,0,413.75,261.18Z"/><path class="cls-1" d="M160.24,233a22.4,22.4,0,0,0-4.89-8.24,19.31,19.31,0,0,0-3.75-3.06,20.52,20.52,0,0,0-4.36-2.08,26.72,26.72,0,0,0-9.41-1.29,41.87,41.87,0,0,0-9.27,1.39A94.92,94.92,0,0,1,110.78,223a3.46,3.46,0,0,1-1.79-.58,1.85,1.85,0,0,1-.53-.65.94.94,0,0,1-.13-.61.85.85,0,0,1,.39-.43,3.25,3.25,0,0,1,.9-.39,9.62,9.62,0,0,1,2.26-.35q2.48-.19,5-.36l2.34-.14a7.62,7.62,0,0,0,8.88-1,.81.81,0,0,1,.43-.22h.13a9.31,9.31,0,0,0,2.48-.75h0a12.35,12.35,0,0,1,3.87-.64c1.79-.1,5.41-2.11,5-5.12-.23-3-4.17-4.27-5.95-4a12,12,0,0,1-3.92.15h0a9.1,9.1,0,0,0-2.58-.23h-.13a.8.8,0,0,1-.47-.13,7.61,7.61,0,0,0-4.32-1.08,7.44,7.44,0,0,0-4,1.37c-1.2.08-2.4.17-3.61.28a49.17,49.17,0,0,0-8,1.33,21.88,21.88,0,0,0-7.63,3.53A16.2,16.2,0,0,0,96.29,216a16.62,16.62,0,0,0-2.18,3.81l0,.06,0,.1a10.31,10.31,0,0,0-.4,4,10.87,10.87,0,0,0,.37,2,9.07,9.07,0,0,0,.79,1.9,10.25,10.25,0,0,0,2,2.54,20.15,20.15,0,0,0-2.57,1.42A20.54,20.54,0,0,0,88.79,237a21.87,21.87,0,0,0-3.2,6.72,20,20,0,0,0,1.29,14.54,21.76,21.76,0,0,0,4.26,5.94,21.42,21.42,0,0,0,9.79,5.57,11.21,11.21,0,0,0-2.15,3.68,10.64,10.64,0,0,0-.58,3.8A11.2,11.2,0,0,0,99,281a12.22,12.22,0,0,0,1.87,3.21,14,14,0,0,0,2.6,2.56,18.52,18.52,0,0,0,6.39,3.11,22.26,22.26,0,0,0,7,.7q.87,0,1.74-.15c.56-.05,1.2-.17,1.69-.25s1-.13,1.59-.17a9.78,9.78,0,0,1,1.53,0,4.68,4.68,0,0,1,2.64,1,6.68,6.68,0,0,1,1.7,2.44,21,21,0,0,1,1.44,6.3v0a.62.62,0,0,0,.47.54l.48.12h0a.6.6,0,0,0,.68-.3,15.49,15.49,0,0,0,1.39-3.6,15.86,15.86,0,0,0,.47-3.82,11,11,0,0,0-2.51-7.17,12.12,12.12,0,0,0-6.52-3.82,19.76,19.76,0,0,0-3.75-.49,26.21,26.21,0,0,1-3.67-.25c-.6-.11-1.2-.18-1.8-.31a17.49,17.49,0,0,1-1.75-.5,10,10,0,0,1-3.16-1.71,3.44,3.44,0,0,1-1.06-1.33c-.23-.38.31-.84.79-1.14a7.83,7.83,0,0,1,1.61-.81,11.24,11.24,0,0,1,1.73-.55,13.23,13.23,0,0,1,7.18.49,52,52,0,0,1,6.8,2.89c2.23,1.08,4.45,2.19,6.75,3.13a25.7,25.7,0,0,0,7.28,1.78,22.78,22.78,0,0,0,7.49-.5,17.54,17.54,0,0,0,6.81-3.26,14,14,0,0,0,4.47-6.17,15.5,15.5,0,0,0,.67-7.64,19.15,19.15,0,0,0-1-3.73,14.63,14.63,0,0,0-.71-1.8,13.7,13.7,0,0,0-.92-1.73,16.33,16.33,0,0,0-3.73-4.18c.35-.15.71-.31,1-.48a13.79,13.79,0,0,0,2.88-2,12.69,12.69,0,0,0,2.92-4.11,14.62,14.62,0,0,0,1.18-4.83,20.18,20.18,0,0,0-.26-4.86A29,29,0,0,0,160.24,233Zm-28.68-17.08a.57.57,0,0,1,.18.29c.09.46-.6,1-1.53,1.16a2.42,2.42,0,0,1-1.57-.15,2.89,2.89,0,0,1,1.48-1.07A3.4,3.4,0,0,1,131.56,215.93Zm-2.28-7.79c.95,0,1.72.36,1.72.83a.47.47,0,0,1-.11.31,3.3,3.3,0,0,1-1.46.07,2.89,2.89,0,0,1-1.66-.75A2.3,2.3,0,0,1,129.28,208.14Zm-9.78,45.09c-1.47.41-2.94.84-4.44,1.22-1.26.52-2.54,1.07-3.75,1.55l-.89.31-.87.26c-.41.1-.81.18-1.22.24-1.17.08-4.52.06-6-2.6-1.27-2.35-3.48-7.52,0-9.54l.44-.28c.44-.16.9-.29,1.37-.42,1.08-.27,2.2-.52,3.38-.77a17.9,17.9,0,0,1,1.81-.24l.93-.08c.29,0,.59,0,.9,0a14.61,14.61,0,0,1,1.87.06c.6.07,1.24.13,1.83.22a21,21,0,0,1,3.64,1.07c4.53,1.76,8.82,4.71,13.48,6.79a66.44,66.44,0,0,0-8.05,1.17C122.47,252.47,121,252.79,119.5,253.23Zm28.74,16.44a4.22,4.22,0,0,1-2.38,1.91,10.44,10.44,0,0,1-3.59.73,13.42,13.42,0,0,1-3.78-.38,16.2,16.2,0,0,1-1.84-.57,8.18,8.18,0,0,1-.93-.37c-.3-.15-.58-.33-.88-.49a11.54,11.54,0,0,0-1.8-.88c-.08,0-.15-.09-.26-.05l-.22-.12a2.7,2.7,0,0,0-.44-.24,8.55,8.55,0,0,1-.91-.45,40.4,40.4,0,0,1-3.55-2.11c-.58-.39-1.18-.8-1.8-1.15l-.61-.31c1-.44,2-.87,3.07-1.26a37.2,37.2,0,0,1,8.79-2.29,21.64,21.64,0,0,1,4.55-.11,10.24,10.24,0,0,1,4.27,1.26,4.9,4.9,0,0,1,1.57,1.38,5.67,5.67,0,0,1,.79,1.88C148.69,267.4,148.82,268.87,148.24,269.67ZM150,241.54a3.24,3.24,0,0,1-.29.82,1,1,0,0,1-.11.21l-.09.09a.36.36,0,0,1-.09.08,2.76,2.76,0,0,1-.67.36,7.88,7.88,0,0,1-1.84.4,15,15,0,0,1-4.06-.18,16.53,16.53,0,0,1-3.92-1.34q-1-.45-1.89-1c-.31-.17-.63-.35-.93-.54a7.57,7.57,0,0,1-.86-.66c-.56-.45-1.12-.92-1.73-1.32-.15-.1-.31-.19-.47-.28s-.17-.07-.25-.12l-.21-.18c-.27-.24-.6-.41-.89-.64-1.15-.91-2.31-1.82-3.44-2.84a32.21,32.21,0,0,0-2.52-2.13l1.77-.51c.84-.25,1.66-.53,2.48-.8a47.06,47.06,0,0,1,4.87-1.42,21.68,21.68,0,0,1,5-.5,12.46,12.46,0,0,1,4.9,1,7.91,7.91,0,0,1,3.62,3.31,13.53,13.53,0,0,1,1.51,4.68,15.21,15.21,0,0,1,.2,2.39A6.52,6.52,0,0,1,150,241.54Z"/><path class="cls-2" d="M103.35,205.48h.32a57.28,57.28,0,0,1,20.7-3.51,57.68,57.68,0,0,1,20.4,3.39l4.5-12.1,2-5.27,3.2-8.61-16,4.13-2.34.6-1.44-1.45-11.07-11.21-11.06,11.21-1.42,1.42-3.18-.8-15-3.76,5.68,14.17Z"/></svg>
