<?xml version="1.0" encoding="utf-8"?><svg id="Layer_1" data-name="Layer 1" xmlns="http://www.w3.org/2000/svg" viewBox="0 0 108.5 76.5"><defs><style>.cls-1{fill:#f39323;}</style></defs><title>MorphmarketM</title><path class="cls-1" d="M97.82,46c2.43-2.42,9.1-9.7,9.1-15.77s-4.24-10.92-12.13-12.74-18.2,4.25-18.2,15.17,0,16.38-6.06,17-5.46-10.31-6.68-24.87-10.31-20-18.8-20S31.1,13.27,29.88,16.3s-1.82,1.82-1.82,1.82c-6.67-11.53-15.16-3-18.19,1.82S.16,30.25.16,30.25c8.49-.6,12.13-8.49,15.17-11.52s10.91-3,10.31,7.88S20.18,40,16.54,44.2a17.46,17.46,0,0,0-2.43,18.2c3,6.67,14,9.71,23.66,3.64s8.49-27.9,7.89-31.54-6.68-18.81,0-18.2S49.9,26,49.9,37.53,54.75,64.83,73,63,89.33,41.17,89.33,37.53s1.21-10.92,5.46-9.1.61,6.67-1.21,9.1-4.25,6.07-4.25,13.95S99,63,102.07,64.22s5.46.61,6.07-2.42S97.82,46,97.82,46Zm-71,14C22,61.19,16.54,53.3,23.21,49.66s7.28-12.74,7.28-12.74C34.13,48.45,31.7,58.76,26.85,60Z"/></svg>
