<?xml version="1.0" encoding="utf-8"?>
<!-- Generator: Adobe Illustrator 23.0.0, SVG Export Plug-In . SVG Version: 6.00 Build 0)  -->
<svg version="1.1" xmlns="http://www.w3.org/2000/svg" xmlns:xlink="http://www.w3.org/1999/xlink" x="0px" y="0px"
	 viewBox="0 0 108 109" style="enable-background:new 0 0 108 109;" xml:space="preserve">
<style type="text/css">
	.st0{fill:#F2F2F2;}
	.st1{fill:#1A1A1A;}
	.st2{fill:url(#SVGID_5_);}
	.st3{fill:#FFFFFF;}
	.st4{fill:#F7931E;}
	.st5{fill:none;stroke:#F7931E;stroke-width:2;stroke-linecap:round;stroke-linejoin:round;stroke-miterlimit:10;}
	.st6{fill:#F7931E;stroke:#F7931E;stroke-width:2;stroke-linecap:round;stroke-linejoin:round;stroke-miterlimit:10;}
	.st7{fill-rule:evenodd;clip-rule:evenodd;fill:#F7931E;}
</style>
<g id="Layer_1">
	<path class="st7" d="M54,104.74c27.65,0,50.07-22.41,50.07-50.07C104.07,27.02,81.65,4.6,54,4.6S3.93,27.02,3.93,54.67
		c0,9.59,2.68,18.87,7.85,26.95c0.34,0.54,0.41,1.18,0.23,1.75L5.6,103.54l20.07-6.64c0.66-0.22,1.36-0.09,1.88,0.29
		C35.5,102.15,44.63,104.74,54,104.74L54,104.74z M54,108.92c-9.87,0-19.48-2.66-27.94-7.75l-23.03,7.62
		c-1.59,0.52-3.15-0.97-2.64-2.61l7.37-23.15c-5.25-8.53-8-18.34-8-28.36C-0.25,24.71,24.04,0.42,54,0.42s54.25,24.29,54.25,54.25
		S83.96,108.92,54,108.92L54,108.92z M29.58,93.67c-0.97-0.61-1.27-1.9-0.65-2.88c0.61-0.97,1.9-1.27,2.88-0.65
		c6.67,4.18,14.33,6.36,22.2,6.36c23.11,0,41.83-18.72,41.83-41.83S77.11,12.84,54,12.84c-23.11,0-41.83,18.72-41.83,41.83
		c0,8.01,2.23,15.76,6.55,22.51l2.08,3.25c0.34,0.54,0.41,1.18,0.23,1.75L17.1,94.54c-0.35,1.1-1.52,1.7-2.61,1.36
		c-1.1-0.35-1.7-1.52-1.36-2.61l3.64-11.43l-1.56-2.43c-4.73-7.4-7.23-15.97-7.23-24.75C7.99,29.26,28.59,8.66,54,8.66
		c25.41,0,46.01,20.6,46.01,46.01c0,25.41-20.6,46.01-46.01,46.01C45.33,100.68,36.92,98.27,29.58,93.67L29.58,93.67z M47.98,62.06
		c1.82,1.75,4.99,4.33,7.74,6.02c2.46,1.51,4.83,2.34,6.41,1.62c2.38-1.09,4.89-5.08,6.82-4.96c2.7,0.17,9.19,1.45,11.19,3.25
		c0.7,0.63,1.24,2.83,0.73,3.66c-3.07,4.93-7.49,7.56-13.46,7.18c-8.5-0.54-17.44-6.81-23.44-12.59
		c-6.01-5.78-12.63-14.44-13.5-22.93c-0.61-5.92,1.85-10.49,6.64-13.73c0.8-0.54,3.04-0.08,3.69,0.59
		c1.88,1.93,3.41,8.37,3.69,11.06c0.2,1.92-3.7,4.59-4.69,7c-0.66,1.6,0.27,3.94,1.87,6.34C43.46,57.25,46.16,60.31,47.98,62.06
		L47.98,62.06z M45.14,52.24c1.62,2.43,4.08,5.21,5.74,6.81c1.66,1.59,4.53,3.94,7.02,5.46c1.37,0.84,2.41,1.43,2.5,1.39
		c2.9-1.33,3.84-5.65,8.81-5.34c3.74,0.24,10.93,1.79,13.73,4.31c2.19,1.97,3.07,6.41,1.48,8.97c-3.9,6.26-9.74,9.62-17.27,9.14
		c-9.59-0.6-19.29-7.23-26.07-13.75c-6.77-6.51-13.78-15.97-14.76-25.51c-0.77-7.5,2.36-13.47,8.46-17.61
		c2.49-1.69,6.97-0.98,9.02,1.12c2.63,2.7,4.46,9.81,4.85,13.54c0.51,4.96-3.77,6.05-4.99,9.01C43.61,49.9,44.25,50.91,45.14,52.24z
		"/>
</g>
<g id="Layer_2">
</g>
</svg>
